<?xml version="1.0" encoding="utf-8"?>
<!-- Generator: Adobe Illustrator 16.0.0, SVG Export Plug-In . SVG Version: 6.00 Build 0)  -->
<!DOCTYPE svg PUBLIC "-//W3C//DTD SVG 1.1//EN" "http://www.w3.org/Graphics/SVG/1.1/DTD/svg11.dtd">
<svg version="1.1" id="Layer_1" xmlns="http://www.w3.org/2000/svg" xmlns:xlink="http://www.w3.org/1999/xlink" x="0px" y="0px"
	 width="464.005px" height="464.066px" viewBox="23.993 23.972 464.005 464.066"
	 enable-background="new 23.993 23.972 464.005 464.066" xml:space="preserve">
<path fill="#1B7CE2" d="M453.499,256.676c0-20.459-3.164-40.263-8.899-58.819L356.423,426.69
	C414.505,392.325,453.498,329.072,453.499,256.676L453.499,256.676z"/>
<path fill="#1B7CE2" d="M193.628,443.884c19.63,6.594,40.642,10.138,62.526,10.138c22.866,0,44.769-3.87,65.188-11.029
	L261.1,286.813L193.628,443.884L193.628,443.884z"/>
<path fill="#1B7CE2" d="M66.837,200.888c-5.212,17.684-8.059,36.403-8.059,55.787c0,73.954,40.714,138.394,100.894,172.155
	L67.441,202.127L66.837,200.888L66.837,200.888z"/>
<path fill="#1B7CE2" d="M167.383,188.16l-8.478-0.379c-18.494-0.307-16.446,18.893-16.446,18.893l65.618,164.577l44.114-105.37
	l-24.627-62.7c-9.861-16.578-33.925-16.404-33.925-16.404v-8.734h137.974l-0.205,9.687l-14.356,0.891
	c-17.879,0-14.264,17.008-14.264,17.008l59.873,159.939l17.162-44.289c30.442-69.016,11.663-120.093,11.663-120.093
	c-30.485-62.72,8.038-71.721,8.038-71.721c2.437-0.348,4.721-0.542,6.963-0.645c-36.199-42.537-90.122-69.519-150.323-69.519
	c-81.398,0-151.316,49.326-181.474,119.706l92.365-0.952l0.327,10.107L167.383,188.16z"/>
<path fill="#1B7CE2" d="M477.839,256.021c0,122.306-99.521,221.839-221.798,221.839c-122.338,0-221.86-99.533-221.86-221.839
	c0-122.338,99.522-221.829,221.86-221.829C378.317,34.202,477.839,133.684,477.839,256.021z M256.041,23.972
	c-127.939,0-232.048,104.11-232.048,232.059s104.11,232.007,232.048,232.007c127.918,0,231.957-104.06,231.957-232.007
	C487.998,128.082,383.96,23.972,256.041,23.972z"/>
</svg>
